<svg width="17" height="17" viewBox="0 0 17 17" fill="none" xmlns="http://www.w3.org/2000/svg">
<g clip-path="url(#clip0_224_34231)">
<path d="M11.0802 10.6666L8.8335 9.33326V6.31326C8.8335 6.0466 8.62017 5.83326 8.3535 5.83326H8.3135C8.04683 5.83326 7.8335 6.0466 7.8335 6.31326V9.45993C7.8335 9.69326 7.9535 9.91326 8.16017 10.0333L10.5935 11.4933C10.8202 11.6266 11.1135 11.5599 11.2468 11.3333C11.3868 11.0999 11.3135 10.7999 11.0802 10.6666V10.6666ZM14.6202 3.83993L12.5668 2.13326C12.2868 1.89993 11.8668 1.93326 11.6268 2.21993C11.3935 2.49993 11.4335 2.91993 11.7135 3.15993L13.7602 4.8666C14.0402 5.09993 14.4602 5.0666 14.7002 4.77993C14.9402 4.49993 14.9002 4.07993 14.6202 3.83993V3.83993ZM3.2335 4.8666L5.28017 3.15993C5.56683 2.91993 5.60683 2.49993 5.36683 2.21993C5.1335 1.93326 4.7135 1.89993 4.4335 2.13326L2.38017 3.83993C2.10017 4.07993 2.06017 4.49993 2.30017 4.77993C2.5335 5.0666 2.9535 5.09993 3.2335 4.8666ZM8.50017 3.1666C5.18683 3.1666 2.50017 5.85326 2.50017 9.1666C2.50017 12.4799 5.18683 15.1666 8.50017 15.1666C11.8135 15.1666 14.5002 12.4799 14.5002 9.1666C14.5002 5.85326 11.8135 3.1666 8.50017 3.1666ZM8.50017 13.8333C5.92683 13.8333 3.8335 11.7399 3.8335 9.1666C3.8335 6.59326 5.92683 4.49993 8.50017 4.49993C11.0735 4.49993 13.1668 6.59326 13.1668 9.1666C13.1668 11.7399 11.0735 13.8333 8.50017 13.8333Z" fill="#B7C1D2"/>
</g>
<defs>
<clipPath id="clip0_224_34231">
<rect width="16" height="16" fill="white" transform="translate(0.5 0.5)"/>
</clipPath>
</defs>
</svg>
