<svg width="134" height="9" viewBox="0 0 134 9" fill="none" xmlns="http://www.w3.org/2000/svg">
<path d="M0.333333 4.5C0.333333 5.97276 1.52724 7.16667 3 7.16667C4.47276 7.16667 5.66667 5.97276 5.66667 4.5C5.66667 3.02724 4.47276 1.83333 3 1.83333C1.52724 1.83333 0.333333 3.02724 0.333333 4.5ZM133.354 4.85355C133.549 4.65829 133.549 4.34171 133.354 4.14645L130.172 0.964466C129.976 0.769204 129.66 0.769204 129.464 0.964466C129.269 1.15973 129.269 1.47631 129.464 1.67157L132.293 4.5L129.464 7.32843C129.269 7.52369 129.269 7.84027 129.464 8.03553C129.66 8.2308 129.976 8.2308 130.172 8.03553L133.354 4.85355ZM4 5C4.27614 5 4.5 4.77614 4.5 4.5C4.5 4.22386 4.27614 4 4 4V5ZM7 4C6.72386 4 6.5 4.22386 6.5 4.5C6.5 4.77614 6.72386 5 7 5V4ZM9 5C9.27614 5 9.5 4.77614 9.5 4.5C9.5 4.22386 9.27614 4 9 4V5ZM12 4C11.7239 4 11.5 4.22386 11.5 4.5C11.5 4.77614 11.7239 5 12 5V4ZM14 5C14.2761 5 14.5 4.77614 14.5 4.5C14.5 4.22386 14.2761 4 14 4V5ZM17 4C16.7239 4 16.5 4.22386 16.5 4.5C16.5 4.77614 16.7239 5 17 5V4ZM19 5C19.2761 5 19.5 4.77614 19.5 4.5C19.5 4.22386 19.2761 4 19 4V5ZM22 4C21.7239 4 21.5 4.22386 21.5 4.5C21.5 4.77614 21.7239 5 22 5V4ZM24 5C24.2761 5 24.5 4.77614 24.5 4.5C24.5 4.22386 24.2761 4 24 4V5ZM27 4C26.7239 4 26.5 4.22386 26.5 4.5C26.5 4.77614 26.7239 5 27 5V4ZM29 5C29.2761 5 29.5 4.77614 29.5 4.5C29.5 4.22386 29.2761 4 29 4V5ZM32 4C31.7239 4 31.5 4.22386 31.5 4.5C31.5 4.77614 31.7239 5 32 5V4ZM34 5C34.2761 5 34.5 4.77614 34.5 4.5C34.5 4.22386 34.2761 4 34 4V5ZM37 4C36.7239 4 36.5 4.22386 36.5 4.5C36.5 4.77614 36.7239 5 37 5V4ZM39 5C39.2761 5 39.5 4.77614 39.5 4.5C39.5 4.22386 39.2761 4 39 4V5ZM42 4C41.7239 4 41.5 4.22386 41.5 4.5C41.5 4.77614 41.7239 5 42 5V4ZM44 5C44.2761 5 44.5 4.77614 44.5 4.5C44.5 4.22386 44.2761 4 44 4V5ZM47 4C46.7239 4 46.5 4.22386 46.5 4.5C46.5 4.77614 46.7239 5 47 5V4ZM49 5C49.2761 5 49.5 4.77614 49.5 4.5C49.5 4.22386 49.2761 4 49 4V5ZM52 4C51.7239 4 51.5 4.22386 51.5 4.5C51.5 4.77614 51.7239 5 52 5V4ZM54 5C54.2761 5 54.5 4.77614 54.5 4.5C54.5 4.22386 54.2761 4 54 4V5ZM57 4C56.7239 4 56.5 4.22386 56.5 4.5C56.5 4.77614 56.7239 5 57 5V4ZM59 5C59.2761 5 59.5 4.77614 59.5 4.5C59.5 4.22386 59.2761 4 59 4V5ZM62 4C61.7239 4 61.5 4.22386 61.5 4.5C61.5 4.77614 61.7239 5 62 5V4ZM64 5C64.2761 5 64.5 4.77614 64.5 4.5C64.5 4.22386 64.2761 4 64 4V5ZM67 4C66.7239 4 66.5 4.22386 66.5 4.5C66.5 4.77614 66.7239 5 67 5V4ZM69 5C69.2761 5 69.5 4.77614 69.5 4.5C69.5 4.22386 69.2761 4 69 4V5ZM72 4C71.7239 4 71.5 4.22386 71.5 4.5C71.5 4.77614 71.7239 5 72 5V4ZM74 5C74.2761 5 74.5 4.77614 74.5 4.5C74.5 4.22386 74.2761 4 74 4V5ZM77 4C76.7239 4 76.5 4.22386 76.5 4.5C76.5 4.77614 76.7239 5 77 5V4ZM79 5C79.2761 5 79.5 4.77614 79.5 4.5C79.5 4.22386 79.2761 4 79 4V5ZM82 4C81.7239 4 81.5 4.22386 81.5 4.5C81.5 4.77614 81.7239 5 82 5V4ZM84 5C84.2761 5 84.5 4.77614 84.5 4.5C84.5 4.22386 84.2761 4 84 4V5ZM87 4C86.7239 4 86.5 4.22386 86.5 4.5C86.5 4.77614 86.7239 5 87 5V4ZM89 5C89.2761 5 89.5 4.77614 89.5 4.5C89.5 4.22386 89.2761 4 89 4V5ZM92 4C91.7239 4 91.5 4.22386 91.5 4.5C91.5 4.77614 91.7239 5 92 5V4ZM94 5C94.2761 5 94.5 4.77614 94.5 4.5C94.5 4.22386 94.2761 4 94 4V5ZM97 4C96.7239 4 96.5 4.22386 96.5 4.5C96.5 4.77614 96.7239 5 97 5V4ZM99 5C99.2761 5 99.5 4.77614 99.5 4.5C99.5 4.22386 99.2761 4 99 4V5ZM102 4C101.724 4 101.5 4.22386 101.5 4.5C101.5 4.77614 101.724 5 102 5V4ZM104 5C104.276 5 104.5 4.77614 104.5 4.5C104.5 4.22386 104.276 4 104 4V5ZM107 4C106.724 4 106.5 4.22386 106.5 4.5C106.5 4.77614 106.724 5 107 5V4ZM109 5C109.276 5 109.5 4.77614 109.5 4.5C109.5 4.22386 109.276 4 109 4V5ZM112 4C111.724 4 111.5 4.22386 111.5 4.5C111.5 4.77614 111.724 5 112 5V4ZM114 5C114.276 5 114.5 4.77614 114.5 4.5C114.5 4.22386 114.276 4 114 4V5ZM117 4C116.724 4 116.5 4.22386 116.5 4.5C116.5 4.77614 116.724 5 117 5V4ZM119 5C119.276 5 119.5 4.77614 119.5 4.5C119.5 4.22386 119.276 4 119 4V5ZM122 4C121.724 4 121.5 4.22386 121.5 4.5C121.5 4.77614 121.724 5 122 5V4ZM124 5C124.276 5 124.5 4.77614 124.5 4.5C124.5 4.22386 124.276 4 124 4V5ZM127 4C126.724 4 126.5 4.22386 126.5 4.5C126.5 4.77614 126.724 5 127 5V4ZM129 5C129.276 5 129.5 4.77614 129.5 4.5C129.5 4.22386 129.276 4 129 4V5ZM132 4C131.724 4 131.5 4.22386 131.5 4.5C131.5 4.77614 131.724 5 132 5V4ZM3 5H4V4H3V5ZM7 5H9V4H7V5ZM12 5H14V4H12V5ZM17 5H19V4H17V5ZM22 5H24V4H22V5ZM27 5H29V4H27V5ZM32 5H34V4H32V5ZM37 5H39V4H37V5ZM42 5H44V4H42V5ZM47 5H49V4H47V5ZM52 5H54V4H52V5ZM57 5H59V4H57V5ZM62 5H64V4H62V5ZM67 5H69V4H67V5ZM72 5H74V4H72V5ZM77 5H79V4H77V5ZM82 5H84V4H82V5ZM87 5H89V4H87V5ZM92 5H94V4H92V5ZM97 5H99V4H97V5ZM102 5H104V4H102V5ZM107 5H109V4H107V5ZM112 5H114V4H112V5ZM117 5H119V4H117V5ZM122 5H124V4H122V5ZM127 5H129V4H127V5ZM132 5H133V4H132V5Z" fill="#B7C1D2"/>
<circle cx="68" cy="4" r="3" fill="black"/>
</svg>
